{
  "accessors": [
    {
      "bufferView": 2,
      "componentType": 5126,
      "count": 65532,
      "max": [
        109.97699737548828,
        37.178188323974609,
        88.394012451171875
      ],
      "min": [
        -109.97699737548828,
        -36.729251861572266,
        -88.395111083984375
      ],
      "type": "VEC3"
    },
    {
      "bufferView": 2,
      "byteOffset": 786384,
      "componentType": 5126,
      "count": 65532,
      "max": [
        0.99941021203994751,
        0.99999856948852539,
        0.99995273351669312
      ],
      "min": [
        -0.99999964237213135,
        -0.99996072053909302,
        -0.99947583675384521
      ],
      "type": "VEC3"
    },
    {
      "bufferView": 3,
      "componentType": 5126,
      "count": 65532,
      "max": [
        0.9928356409072876,
        0.99999135732650757,
        0.99892467260360718,
        1
      ],
      "min": [
        -0.99994546175003052,
        -0.99999332427978516,
        -0.99134713411331177,
        -1
      ],
      "type": "VEC4"
    },
    {
      "bufferView": 1,
      "componentType": 5126,
      "count": 65532,
      "max": [
        0.998046875,
        0.998046875
      ],
      "min": [
        0.001953125,
        0.01120072603225708
      ],
      "type": "VEC2"
    },
    {
      "bufferView": 1,
      "byteOffset": 524256,
      "componentType": 5126,
      "count": 65532,
      "max": [
        0.998046875,
        0.998046875
      ],
      "min": [
        0.001953125,
        0.01120072603225708
      ],
      "type": "VEC2"
    },
    {
      "bufferView": 1,
      "byteOffset": 1048512,
      "componentType": 5126,
      "count": 65532,
      "max": [
        0.998046875,
        0.998046875
      ],
      "min": [
        0.001953125,
        0.01120072603225708
      ],
      "type": "VEC2"
    },
    {
      "bufferView": 0,
      "componentType": 5125,
      "count": 350784,
      "max": [
        65531
      ],
      "min": [
        0
      ],
      "type": "SCALAR"
    },
    {
      "bufferView": 2,
      "byteOffset": 1572768,
      "componentType": 5126,
      "count": 23510,
      "max": [
        107.61160278320312,
        36.553230285644531,
        88.239349365234375
      ],
      "min": [
        -107.71829986572266,
        -37.182609558105469,
        -87.881759643554688
      ],
      "type": "VEC3"
    },
    {
      "bufferView": 2,
      "byteOffset": 1854888,
      "componentType": 5126,
      "count": 23510,
      "max": [
        0.99905073642730713,
        0.99996143579483032,
        0.99980348348617554
      ],
      "min": [
        -0.99582523107528687,
        -0.99999916553497314,
        -0.99996286630630493
      ],
      "type": "VEC3"
    },
    {
      "bufferView": 3,
      "byteOffset": 1048512,
      "componentType": 5126,
      "count": 23510,
      "max": [
        0.99668079614639282,
        0.99996751546859741,
        0.99935191869735718,
        1
      ],
      "min": [
        -0.99885028600692749,
        -0.99994885921478271,
        -0.99972540140151978,
        -1
      ],
      "type": "VEC4"
    },
    {
      "bufferView": 1,
      "byteOffset": 1572768,
      "componentType": 5126,
      "count": 23510,
      "max": [
        0.99387717247009277,
        0.998046875
      ],
      "min": [
        0.001953125,
        0.01120072603225708
      ],
      "type": "VEC2"
    },
    {
      "bufferView": 1,
      "byteOffset": 1760848,
      "componentType": 5126,
      "count": 23510,
      "max": [
        0.99387717247009277,
        0.998046875
      ],
      "min": [
        0.001953125,
        0.01120072603225708
      ],
      "type": "VEC2"
    },
    {
      "bufferView": 1,
      "byteOffset": 1948928,
      "componentType": 5126,
      "count": 23510,
      "max": [
        0.99387717247009277,
        0.998046875
      ],
      "min": [
        0.001953125,
        0.01120072603225708
      ],
      "type": "VEC2"
    },
    {
      "bufferView": 0,
      "byteOffset": 1403136,
      "componentType": 5125,
      "count": 99216,
      "max": [
        23509
      ],
      "min": [
        0
      ],
      "type": "SCALAR"
    }
  ],
  "asset": {
    "extras": {
      "author": "Smithsonian Institution (https://sketchfab.com/Smithsonian)",
      "license": "CC0-1.0 (http://creativecommons.org/publicdomain/zero/1.0/)",
      "source": "https://sketchfab.com/3d-models/kylix-fee46b754ccf4c5bad2093e9d6e1d8f9",
      "title": "Kylix"
    },
    "generator": "Sketchfab-7.80.0",
    "version": "2.0"
  },
  "bufferViews": [
    {
      "buffer": 0,
      "byteLength": 1800000,
      "byteOffset": 0,
      "name": "floatBufferViews",
      "target": 34963
    },
    {
      "buffer": 0,
      "byteLength": 2137008,
      "byteOffset": 1800000,
      "byteStride": 8,
      "name": "floatBufferViews",
      "target": 34962
    },
    {
      "buffer": 0,
      "byteLength": 2137008,
      "byteOffset": 3937008,
      "byteStride": 12,
      "name": "floatBufferViews",
      "target": 34962
    },
    {
      "buffer": 0,
      "byteLength": 1424672,
      "byteOffset": 6074016,
      "byteStride": 16,
      "name": "floatBufferViews",
      "target": 34962
    }
  ],
  "buffers": [
    {
      "byteLength": 7498688,
      "uri": "scene.bin"
    }
  ],
  "images": [
    {
      "uri": "textures/default_baseColor.jpeg"
    },
    {
      "uri": "textures/default_metallicRoughness.png"
    },
    {
      "uri": "textures/default_normal.jpeg"
    }
  ],
  "materials": [
    {
      "doubleSided": false,
      "emissiveFactor": [
        1,
        1,
        1
      ],
      "emissiveTexture": {
        "index": 0,
        "texCoord": 0
      },
      "name": "default",
      "normalTexture": {
        "index": 2,
        "scale": 1,
        "texCoord": 2
      },
      "occlusionTexture": {
        "index": 1,
        "strength": 1,
        "texCoord": 1
      },
      "pbrMetallicRoughness": {
        "baseColorFactor": [
          1,
          1,
          1,
          1
        ],
        "baseColorTexture": {
          "index": 0,
          "texCoord": 0
        },
        "metallicFactor": 0.10000000000000001,
        "metallicRoughnessTexture": {
          "index": 1,
          "texCoord": 1
        },
        "roughnessFactor": 0.80000000000000004
      }
    }
  ],
  "meshes": [
    {
      "primitives": [
        {
          "attributes": {
            "NORMAL": 1,
            "POSITION": 0,
            "TANGENT": 2,
            "TEXCOORD_0": 3,
            "TEXCOORD_1": 4,
            "TEXCOORD_2": 5
          },
          "indices": 6,
          "material": 0,
          "mode": 4
        }
      ]
    },
    {
      "primitives": [
        {
          "attributes": {
            "NORMAL": 8,
            "POSITION": 7,
            "TANGENT": 9,
            "TEXCOORD_0": 10,
            "TEXCOORD_1": 11,
            "TEXCOORD_2": 12
          },
          "indices": 13,
          "material": 0,
          "mode": 4
        }
      ]
    }
  ],
  "nodes": [
    {
      "children": [
        1
      ],
      "name": "RootNode (gltf orientation matrix)",
      "rotation": [
        -0.70710678118654746,
        -0,
        -0,
        0.70710678118654757
      ]
    },
    {
      "children": [
        2
      ],
      "name": "RootNode (model correction matrix)"
    },
    {
      "children": [
        3
      ],
      "name": "root"
    },
    {
      "children": [
        4
      ],
      "matrix": [
        1,
        0,
        0,
        0,
        0,
        2.2204460492503131e-16,
        1,
        0,
        0,
        -1,
        2.2204460492503131e-16,
        0,
        0,
        0,
        0,
        1
      ],
      "name": "GLTF_SceneRootNode"
    },
    {
      "children": [
        5,
        6
      ],
      "name": "_0"
    },
    {
      "mesh": 0,
      "name": ""
    },
    {
      "mesh": 1,
      "name": ""
    }
  ],
  "samplers": [
    {
      "magFilter": 9729,
      "minFilter": 9987,
      "wrapS": 10497,
      "wrapT": 10497
    }
  ],
  "scene": 0,
  "scenes": [
    {
      "name": "OSG_Scene",
      "nodes": [
        0
      ]
    }
  ],
  "textures": [
    {
      "sampler": 0,
      "source": 0
    },
    {
      "sampler": 0,
      "source": 1
    },
    {
      "sampler": 0,
      "source": 2
    }
  ]
}

